<?xml version="1.0" encoding="UTF-8" standalone="no"?>
<!DOCTYPE svg PUBLIC "-//W3C//DTD SVG 1.1//EN"
 "http://www.w3.org/Graphics/SVG/1.1/DTD/svg11.dtd">
<!-- Generated by graphviz version 2.38.0 (20140413.2041)
 -->
<!-- Title: pastafarianism Pages: 1 -->
<svg width="387pt" height="280pt"
 viewBox="0.00 0.00 386.53 280.00" xmlns="http://www.w3.org/2000/svg" xmlns:xlink="http://www.w3.org/1999/xlink">
<g id="graph0" class="graph" transform="scale(1 1) rotate(0) translate(4 276)">
<title>pastafarianism</title>
<polygon fill="white" stroke="none" points="-4,4 -4,-276 382.528,-276 382.528,4 -4,4"/>
<!-- parallel -->
<g id="node1" class="node"><title>parallel</title>
<polygon fill="gold" stroke="black" points="255.661,-272 184.615,-272 166.339,-216 237.385,-216 255.661,-272"/>
<text text-anchor="middle" x="211" y="-246.8" font-family="Times New Roman,serif" font-size="9.00">parallel</text>
<text text-anchor="middle" x="211" y="-236.8" font-family="Times New Roman,serif" font-size="9.00">type</text>
</g>
<!-- sequence -->
<g id="node2" class="node"><title>sequence</title>
<polygon fill="orange" stroke="black" points="162,-180 108,-180 108,-144 162,-144 162,-180"/>
<text text-anchor="middle" x="135" y="-159.8" font-family="Times New Roman,serif" font-size="9.00">sequence</text>
</g>
<!-- parallel&#45;&gt;sequence -->
<g id="edge1" class="edge"><title>parallel&#45;&gt;sequence</title>
<path fill="none" stroke="black" d="M185.27,-215.916C176.61,-206.8 166.998,-196.682 158.518,-187.756"/>
<polygon fill="black" stroke="black" points="160.834,-185.112 151.409,-180.273 155.759,-189.933 160.834,-185.112"/>
</g>
<!-- selector -->
<g id="node8" class="node"><title>selector</title>
<polygon fill="cyan" stroke="black" points="278.493,-154.544 278.493,-169.456 262.388,-180 239.612,-180 223.507,-169.456 223.507,-154.544 239.612,-144 262.388,-144 278.493,-154.544"/>
<text text-anchor="middle" x="251" y="-159.8" font-family="Times New Roman,serif" font-size="9.00">selector</text>
</g>
<!-- parallel&#45;&gt;selector -->
<g id="edge7" class="edge"><title>parallel&#45;&gt;selector</title>
<path fill="none" stroke="black" d="M224.542,-215.916C228.824,-207.353 233.547,-197.905 237.804,-189.391"/>
<polygon fill="black" stroke="black" points="241.022,-190.782 242.364,-180.273 234.761,-187.652 241.022,-190.782"/>
</g>
<!-- worker -->
<g id="node3" class="node"><title>worker</title>
<ellipse fill="gray" stroke="black" cx="27" cy="-90" rx="27" ry="18"/>
<text text-anchor="middle" x="27" y="-87.8" font-family="Times New Roman,serif" font-size="9.00">worker</text>
</g>
<!-- sequence&#45;&gt;worker -->
<g id="edge2" class="edge"><title>sequence&#45;&gt;worker</title>
<path fill="none" stroke="black" d="M108.58,-143.876C92.1409,-133.221 71.0398,-119.544 54.4167,-108.77"/>
<polygon fill="black" stroke="black" points="55.9956,-105.623 45.7004,-103.121 52.1883,-111.497 55.9956,-105.623"/>
</g>
<!-- worker* -->
<g id="node4" class="node"><title>worker*</title>
<ellipse fill="gray" stroke="black" cx="99" cy="-90" rx="27.2716" ry="18"/>
<text text-anchor="middle" x="99" y="-87.8" font-family="Times New Roman,serif" font-size="9.00">worker*</text>
</g>
<!-- sequence&#45;&gt;worker* -->
<g id="edge3" class="edge"><title>sequence&#45;&gt;worker*</title>
<path fill="none" stroke="black" d="M126.101,-143.697C121.836,-135.403 116.646,-125.311 111.953,-116.187"/>
<polygon fill="black" stroke="black" points="114.989,-114.437 107.303,-107.145 108.764,-117.638 114.989,-114.437"/>
</g>
<!-- sequence* -->
<g id="node5" class="node"><title>sequence*</title>
<polygon fill="orange" stroke="black" points="198,-108 144,-108 144,-72 198,-72 198,-108"/>
<text text-anchor="middle" x="171" y="-87.8" font-family="Times New Roman,serif" font-size="9.00">sequence*</text>
</g>
<!-- sequence&#45;&gt;sequence* -->
<g id="edge4" class="edge"><title>sequence&#45;&gt;sequence*</title>
<path fill="none" stroke="black" d="M143.899,-143.697C147.997,-135.728 152.949,-126.1 157.493,-117.264"/>
<polygon fill="black" stroke="black" points="160.742,-118.598 162.203,-108.104 154.517,-115.396 160.742,-118.598"/>
</g>
<!-- worker** -->
<g id="node6" class="node"><title>worker**</title>
<ellipse fill="gray" stroke="black" cx="131" cy="-18" rx="29.3898" ry="18"/>
<text text-anchor="middle" x="131" y="-15.8" font-family="Times New Roman,serif" font-size="9.00">worker**</text>
</g>
<!-- sequence*&#45;&gt;worker** -->
<g id="edge5" class="edge"><title>sequence*&#45;&gt;worker**</title>
<path fill="none" stroke="black" d="M161.112,-71.6966C156.323,-63.316 150.485,-53.0983 145.228,-43.8988"/>
<polygon fill="black" stroke="black" points="148.226,-42.0905 140.225,-35.1446 142.148,-45.5635 148.226,-42.0905"/>
</g>
<!-- worker*** -->
<g id="node7" class="node"><title>worker***</title>
<ellipse fill="gray" stroke="black" cx="211" cy="-18" rx="32.1641" ry="18"/>
<text text-anchor="middle" x="211" y="-15.8" font-family="Times New Roman,serif" font-size="9.00">worker***</text>
</g>
<!-- sequence*&#45;&gt;worker*** -->
<g id="edge6" class="edge"><title>sequence*&#45;&gt;worker***</title>
<path fill="none" stroke="black" d="M180.888,-71.6966C185.558,-63.5234 191.227,-53.6031 196.381,-44.5839"/>
<polygon fill="black" stroke="black" points="199.579,-46.0412 201.502,-35.6223 193.501,-42.5682 199.579,-46.0412"/>
</g>
<!-- worker**** -->
<g id="node9" class="node"><title>worker****</title>
<ellipse fill="gray" stroke="black" cx="251" cy="-90" rx="34.7826" ry="18"/>
<text text-anchor="middle" x="251" y="-87.8" font-family="Times New Roman,serif" font-size="9.00">worker****</text>
</g>
<!-- selector&#45;&gt;worker**** -->
<g id="edge8" class="edge"><title>selector&#45;&gt;worker****</title>
<path fill="none" stroke="black" d="M251,-143.697C251,-135.983 251,-126.712 251,-118.112"/>
<polygon fill="black" stroke="black" points="254.5,-118.104 251,-108.104 247.5,-118.104 254.5,-118.104"/>
</g>
<!-- worker***** -->
<g id="node10" class="node"><title>worker*****</title>
<ellipse fill="gray" stroke="black" cx="341" cy="-90" rx="37.5556" ry="18"/>
<text text-anchor="middle" x="341" y="-87.8" font-family="Times New Roman,serif" font-size="9.00">worker*****</text>
</g>
<!-- selector&#45;&gt;worker***** -->
<g id="edge9" class="edge"><title>selector&#45;&gt;worker*****</title>
<path fill="none" stroke="black" d="M268.353,-147.503C281.248,-137.474 299.089,-123.598 313.863,-112.107"/>
<polygon fill="black" stroke="black" points="316.402,-114.566 322.147,-105.664 312.104,-109.04 316.402,-114.566"/>
</g>
</g>
</svg>
