<?xml version="1.0" encoding="UTF-8" standalone="no"?>
<!DOCTYPE svg PUBLIC "-//W3C//DTD SVG 1.1//EN"
 "http://www.w3.org/Graphics/SVG/1.1/DTD/svg11.dtd">
<!-- Generated by graphviz version 2.38.0 (20140413.2041)
 -->
<!-- Title: pastafarianism Pages: 1 -->
<svg width="617pt" height="260pt"
 viewBox="0.00 0.00 617.19 260.00" xmlns="http://www.w3.org/2000/svg" xmlns:xlink="http://www.w3.org/1999/xlink">
<g id="graph0" class="graph" transform="scale(1 1) rotate(0) translate(4 256)">
<title>pastafarianism</title>
<polygon fill="white" stroke="none" points="-4,4 -4,-256 613.188,-256 613.188,4 -4,4"/>
<!-- Demo Dot Graphs fine_detail -->
<g id="node1" class="node"><title>Demo Dot Graphs fine_detail</title>
<polygon fill="cyan" stroke="black" points="342.48,-226.544 342.48,-241.456 297.093,-252 232.907,-252 187.52,-241.456 187.52,-226.544 232.907,-216 297.093,-216 342.48,-226.544"/>
<text text-anchor="middle" x="265" y="-231.8" font-family="Times New Roman,serif" font-size="9.00">Demo Dot Graphs fine_detail</text>
</g>
<!-- BlackBox 1 -->
<g id="node2" class="node"><title>BlackBox 1</title>
<polygon fill="#333333" stroke="black" points="212.5,-180 139.5,-180 139.5,-144 212.5,-144 212.5,-180"/>
<text text-anchor="middle" x="176" y="-159.8" font-family="Times New Roman,serif" font-size="9.00" fill="white">Ⓜ BlackBox 1</text>
</g>
<!-- Demo Dot Graphs fine_detail&#45;&gt;BlackBox 1 -->
<g id="edge1" class="edge"><title>Demo Dot Graphs fine_detail&#45;&gt;BlackBox 1</title>
<path fill="none" stroke="black" d="M243,-215.697C231.791,-206.881 217.998,-196.032 205.846,-186.474"/>
<polygon fill="black" stroke="black" points="207.771,-183.535 197.747,-180.104 203.443,-189.038 207.771,-183.535"/>
</g>
<!-- Blackbox 2 -->
<g id="node10" class="node"><title>Blackbox 2</title>
<polygon fill="#333333" stroke="black" points="440.5,-180 369.5,-180 369.5,-144 440.5,-144 440.5,-180"/>
<text text-anchor="middle" x="405" y="-159.8" font-family="Times New Roman,serif" font-size="9.00" fill="lawngreen">Ⓜ Blackbox 2</text>
</g>
<!-- Demo Dot Graphs fine_detail&#45;&gt;Blackbox 2 -->
<g id="edge9" class="edge"><title>Demo Dot Graphs fine_detail&#45;&gt;Blackbox 2</title>
<path fill="none" stroke="black" d="M298.533,-216.233C317.474,-206.763 341.357,-194.822 361.7,-184.65"/>
<polygon fill="black" stroke="black" points="363.389,-187.719 370.768,-180.116 360.258,-181.458 363.389,-187.719"/>
</g>
<!-- Worker -->
<g id="node3" class="node"><title>Worker</title>
<ellipse fill="gray" stroke="black" cx="27" cy="-90" rx="27" ry="18"/>
<text text-anchor="middle" x="27" y="-87.8" font-family="Times New Roman,serif" font-size="9.00">Worker</text>
</g>
<!-- BlackBox 1&#45;&gt;Worker -->
<g id="edge2" class="edge"><title>BlackBox 1&#45;&gt;Worker</title>
<path fill="none" stroke="black" d="M139.602,-143.958C117.45,-133.579 88.5858,-120.041 63,-108 61.2177,-107.161 59.386,-106.298 57.538,-105.427"/>
<polygon fill="black" stroke="black" points="58.8535,-102.178 48.316,-101.077 55.8669,-108.509 58.8535,-102.178"/>
</g>
<!-- Worker* -->
<g id="node4" class="node"><title>Worker*</title>
<ellipse fill="gray" stroke="black" cx="100" cy="-90" rx="27.9273" ry="18"/>
<text text-anchor="middle" x="100" y="-87.8" font-family="Times New Roman,serif" font-size="9.00">Worker*</text>
</g>
<!-- BlackBox 1&#45;&gt;Worker* -->
<g id="edge3" class="edge"><title>BlackBox 1&#45;&gt;Worker*</title>
<path fill="none" stroke="black" d="M157.213,-143.697C146.885,-134.184 133.987,-122.304 123.053,-112.233"/>
<polygon fill="black" stroke="black" points="125.23,-109.479 115.503,-105.279 120.487,-114.628 125.23,-109.479"/>
</g>
<!-- Worker** -->
<g id="node5" class="node"><title>Worker**</title>
<ellipse fill="gray" stroke="black" cx="176" cy="-90" rx="30.6995" ry="18"/>
<text text-anchor="middle" x="176" y="-87.8" font-family="Times New Roman,serif" font-size="9.00">Worker**</text>
</g>
<!-- BlackBox 1&#45;&gt;Worker** -->
<g id="edge4" class="edge"><title>BlackBox 1&#45;&gt;Worker**</title>
<path fill="none" stroke="black" d="M176,-143.697C176,-135.983 176,-126.712 176,-118.112"/>
<polygon fill="black" stroke="black" points="179.5,-118.104 176,-108.104 172.5,-118.104 179.5,-118.104"/>
</g>
<!-- Blackbox 3 -->
<g id="node6" class="node"><title>Blackbox 3</title>
<polygon fill="#333333" stroke="black" points="295.5,-108 224.5,-108 224.5,-72 295.5,-72 295.5,-108"/>
<text text-anchor="middle" x="260" y="-87.8" font-family="Times New Roman,serif" font-size="9.00" fill="dodgerblue">Ⓜ Blackbox 3</text>
</g>
<!-- BlackBox 1&#45;&gt;Blackbox 3 -->
<g id="edge5" class="edge"><title>BlackBox 1&#45;&gt;Blackbox 3</title>
<path fill="none" stroke="black" d="M196.764,-143.697C207.241,-134.965 220.111,-124.24 231.5,-114.75"/>
<polygon fill="black" stroke="black" points="234.033,-117.195 239.475,-108.104 229.552,-111.817 234.033,-117.195"/>
</g>
<!-- Worker*** -->
<g id="node7" class="node"><title>Worker***</title>
<ellipse fill="gray" stroke="black" cx="173" cy="-18" rx="32.8182" ry="18"/>
<text text-anchor="middle" x="173" y="-15.8" font-family="Times New Roman,serif" font-size="9.00">Worker***</text>
</g>
<!-- Blackbox 3&#45;&gt;Worker*** -->
<g id="edge6" class="edge"><title>Blackbox 3&#45;&gt;Worker***</title>
<path fill="none" stroke="black" d="M238.494,-71.6966C226.441,-61.9989 211.331,-49.8414 198.663,-39.6481"/>
<polygon fill="black" stroke="black" points="200.732,-36.8208 190.747,-33.279 196.344,-42.2747 200.732,-36.8208"/>
</g>
<!-- Worker**** -->
<g id="node8" class="node"><title>Worker****</title>
<ellipse fill="gray" stroke="black" cx="260" cy="-18" rx="35.5926" ry="18"/>
<text text-anchor="middle" x="260" y="-15.8" font-family="Times New Roman,serif" font-size="9.00">Worker****</text>
</g>
<!-- Blackbox 3&#45;&gt;Worker**** -->
<g id="edge7" class="edge"><title>Blackbox 3&#45;&gt;Worker****</title>
<path fill="none" stroke="black" d="M260,-71.6966C260,-63.9827 260,-54.7125 260,-46.1124"/>
<polygon fill="black" stroke="black" points="263.5,-46.1043 260,-36.1043 256.5,-46.1044 263.5,-46.1043"/>
</g>
<!-- Worker***** -->
<g id="node9" class="node"><title>Worker*****</title>
<ellipse fill="gray" stroke="black" cx="352" cy="-18" rx="38.2105" ry="18"/>
<text text-anchor="middle" x="352" y="-15.8" font-family="Times New Roman,serif" font-size="9.00">Worker*****</text>
</g>
<!-- Blackbox 3&#45;&gt;Worker***** -->
<g id="edge8" class="edge"><title>Blackbox 3&#45;&gt;Worker*****</title>
<path fill="none" stroke="black" d="M282.742,-71.6966C295.313,-62.1317 311.028,-50.174 324.31,-40.0681"/>
<polygon fill="black" stroke="black" points="326.791,-42.579 332.63,-33.7383 322.552,-37.0082 326.791,-42.579"/>
</g>
<!-- Worker****** -->
<g id="node11" class="node"><title>Worker******</title>
<ellipse fill="gray" stroke="black" cx="354" cy="-90" rx="40.9837" ry="18"/>
<text text-anchor="middle" x="354" y="-87.8" font-family="Times New Roman,serif" font-size="9.00">Worker******</text>
</g>
<!-- Blackbox 2&#45;&gt;Worker****** -->
<g id="edge10" class="edge"><title>Blackbox 2&#45;&gt;Worker******</title>
<path fill="none" stroke="black" d="M392.393,-143.697C386.25,-135.265 378.753,-124.975 372.019,-115.732"/>
<polygon fill="black" stroke="black" points="374.828,-113.644 366.111,-107.622 369.17,-117.766 374.828,-113.644"/>
</g>
<!-- Worker******* -->
<g id="node12" class="node"><title>Worker*******</title>
<ellipse fill="gray" stroke="black" cx="456" cy="-90" rx="43.1034" ry="18"/>
<text text-anchor="middle" x="456" y="-87.8" font-family="Times New Roman,serif" font-size="9.00">Worker*******</text>
</g>
<!-- Blackbox 2&#45;&gt;Worker******* -->
<g id="edge11" class="edge"><title>Blackbox 2&#45;&gt;Worker*******</title>
<path fill="none" stroke="black" d="M417.607,-143.697C423.75,-135.265 431.247,-124.975 437.981,-115.732"/>
<polygon fill="black" stroke="black" points="440.83,-117.766 443.889,-107.622 435.172,-113.644 440.83,-117.766"/>
</g>
<!-- Worker******** -->
<g id="node13" class="node"><title>Worker********</title>
<ellipse fill="gray" stroke="black" cx="563" cy="-90" rx="46.3768" ry="18"/>
<text text-anchor="middle" x="563" y="-87.8" font-family="Times New Roman,serif" font-size="9.00">Worker********</text>
</g>
<!-- Blackbox 2&#45;&gt;Worker******** -->
<g id="edge12" class="edge"><title>Blackbox 2&#45;&gt;Worker********</title>
<path fill="none" stroke="black" d="M440.853,-145.116C465.719,-134.099 498.812,-119.438 524.28,-108.154"/>
<polygon fill="black" stroke="black" points="525.909,-111.261 533.634,-104.01 523.074,-104.861 525.909,-111.261"/>
</g>
</g>
</svg>
